<svg id="Layer_1" data-name="Layer 1" xmlns="http://www.w3.org/2000/svg" viewBox="0 0 934.25 934.25">
  <defs>
    <style>
      .cls-1 {
        fill: #7f5823;
      }

      .cls-2 {
        fill: #614220;
        opacity: 0.32;
      }

      .cls-3 {
        fill: #fff;
      }
    </style>
  </defs>
  <title>logo-unitrufa</title>
  <g>
    <g>
      <path class="cls-1" d="M833.84,173.31A465.68,465.68,0,0,0,500,32.88C242,32.88,32.88,242,32.88,500c0,191,114.59,355.12,278.75,427.55A465.41,465.41,0,0,0,500,967.13C758,967.13,967.13,758,967.13,500A465.6,465.6,0,0,0,833.84,173.31Z" transform="translate(-32.88 -32.88)"/>
      <path class="cls-2" d="M967.13,500A465.6,465.6,0,0,0,833.84,173.31a465.48,465.48,0,0,0-188.36-39.57c-258,0-467.13,209.14-467.13,467.13A465.59,465.59,0,0,0,311.63,927.55,465.41,465.41,0,0,0,500,967.13C758,967.13,967.13,758,967.13,500Z" transform="translate(-32.88 -32.88)"/>
    </g>
    <path class="cls-3" d="M689.91,281.27V131.93l-92.4,24.71v3.66h-.19v121H516.93v72h80.39V572.56c0,154-66.13,222.15-169.46,222.15-93,0-162.22-66.13-162.22-222.15V160.3H174.72V570.5c0,216,107.46,297.57,250,297.57,150.86,0,263.48-87.82,263.48-301.71V411.28l1.67-58H825.28v-72Z" transform="translate(-32.88 -32.88)"/>
  </g>
</svg>
